ffmpeg version 4.2.4-1ubuntu0.1 Copyright (c) 2000-2020 the FFmpeg developers
  built with gcc 9 (Ubuntu 9.3.0-10ubuntu2)
  configuration: --prefix=/usr --extra-version=1ubuntu0.1 --toolchain=hardened --libdir=/usr/lib/x86_64-linux-gnu --incdir=/usr/include/x86_64-linux-gnu --arch=amd64 --enable-gpl --disable-stripping --enable-avresample --disable-filter=resample --enable-avisynth --enable-gnutls --enable-ladspa --enable-libaom --enable-libass --enable-libbluray --enable-libbs2b --enable-libcaca --enable-libcdio --enable-libcodec2 --enable-libflite --enable-libfontconfig --enable-libfreetype --enable-libfribidi --enable-libgme --enable-libgsm --enable-libjack --enable-libmp3lame --enable-libmysofa --enable-libopenjpeg --enable-libopenmpt --enable-libopus --enable-libpulse --enable-librsvg --enable-librubberband --enable-libshine --enable-libsnappy --enable-libsoxr --enable-libspeex --enable-libssh --enable-libtheora --enable-libtwolame --enable-libvidstab --enable-libvorbis --enable-libvpx --enable-libwavpack --enable-libwebp --enable-libx265 --enable-libxml2 --enable-libxvid --enable-libzmq --enable-libzvbi --enable-lv2 --enable-omx --enable-openal --enable-opencl --enable-opengl --enable-sdl2 --enable-libdc1394 --enable-libdrm --enable-libiec61883 --enable-nvenc --enable-chromaprint --enable-frei0r --enable-libx264 --enable-shared
  libavutil      56. 31.100 / 56. 31.100
  libavcodec     58. 54.100 / 58. 54.100
  libavformat    58. 29.100 / 58. 29.100
  libavdevice    58.  8.100 / 58.  8.100
  libavfilter     7. 57.100 /  7. 57.100
  libavresample   4.  0.  0 /  4.  0.  0
  libswscale      5.  5.100 /  5.  5.100
  libswresample   3.  5.100 /  3.  5.100
  libpostproc    55.  5.100 / 55.  5.100
Routing option strict to both codec and muxer layer
[h264 @ 0x5625eaac9e00] Reinit context to 640x352, pix_fmt: yuv420p
Input #0, mov,mp4,m4a,3gp,3g2,mj2, from '/var/www/html/project/media/video/original/WhatsApp_Video_2022-03-31_at_20.31.47.mp4':
  Metadata:
    major_brand     : mp42
    minor_version   : 0
    compatible_brands: mp42mp41
    creation_time   : 2022-03-31T18:41:04.000000Z
  Duration: 00:00:23.15, start: 0.000000, bitrate: 5058 kb/s
    Stream #0:0(eng): Video: h264 (Main), 1 reference frame (avc1 / 0x31637661), yuv420p(left), 640x352 [SAR 1:1 DAR 20:11], 4741 kb/s, 60 fps, 60 tbr, 60k tbn, 120 tbc (default)
    Metadata:
      creation_time   : 2022-03-31T18:41:04.000000Z
      handler_name    : ?Mainconcept Video Media Handler
      encoder         : AVC Coding
    Stream #0:1(eng): Audio: aac (LC) (mp4a / 0x6134706D), 48000 Hz, stereo, fltp, 317 kb/s (default)
    Metadata:
      creation_time   : 2022-03-31T18:41:04.000000Z
      handler_name    : #Mainconcept MP4 Sound Media Handler
Input #1, png_pipe, from '/var/www/html/project/static/images/templates/logo.png':
  Duration: N/A, bitrate: N/A
    Stream #1:0: Video: png, 1 reference frame, rgba(pc), 1920x1080 [SAR 2835:2835 DAR 16:9], 25 tbr, 25 tbn, 25 tbc
[Parsed_scale_0 @ 0x5625eaad0f40] w:1280 h:720 flags:'bilinear' interl:0
[Parsed_scale_2 @ 0x5625eac51700] w:1280 h:720 flags:'bilinear' interl:0
Stream mapping:
  Stream #0:0 (h264) -> scale (graph 0)
  Stream #1:0 (png) -> scale (graph 0)
  overlay (graph 0) -> Stream #0:0 (libx264)
  Stream #0:1 -> #0:1 (aac (native) -> aac (native))
Press [q] to stop, [?] for help
[h264 @ 0x5625eab0f600] Reinit context to 640x352, pix_fmt: yuv420p
[graph_1_in_0_1 @ 0x5625eaf5e2c0] tb:1/48000 samplefmt:fltp samplerate:48000 chlayout:0x3
[Parsed_scale_0 @ 0x5625eb094240] w:1280 h:720 flags:'bilinear' interl:0
[Parsed_scale_2 @ 0x5625eb098f40] w:1280 h:720 flags:'bilinear' interl:0
[graph 0 input from stream 0:0 @ 0x5625eb09b180] w:640 h:352 pixfmt:yuv420p tb:1/60000 fr:60/1 sar:1/1 sws_param:flags=2
[graph 0 input from stream 1:0 @ 0x5625eb09c200] w:1920 h:1080 pixfmt:rgba tb:1/25 fr:25/1 sar:2835/2835 sws_param:flags=2
[Parsed_scale_0 @ 0x5625eb094240] w:640 h:352 fmt:yuv420p sar:1/1 -> w:1280 h:720 fmt:yuv420p sar:45/44 flags:0x2
[Parsed_setsar_1 @ 0x5625eb094cc0] w:1280 h:720 sar:45/44 dar:20/11 -> sar:1/1 dar:16/9
[Parsed_scale_2 @ 0x5625eb098f40] w:1920 h:1080 fmt:rgba sar:2835/2835 -> w:1280 h:720 fmt:yuva420p sar:1/1 flags:0x2
[Parsed_setsar_3 @ 0x5625eb099740] w:1280 h:720 sar:1/1 dar:16/9 -> sar:1/1 dar:16/9
[Parsed_overlay_4 @ 0x5625eb09a3c0] main w:1280 h:720 fmt:yuv420p overlay w:1280 h:720 fmt:yuva420p
[Parsed_overlay_4 @ 0x5625eb09a3c0] [framesync @ 0x5625eb09a4e8] Selected 1/60000 time base
[Parsed_overlay_4 @ 0x5625eb09a3c0] [framesync @ 0x5625eb09a4e8] Sync level 2
[libx264 @ 0x5625eac12680] using SAR=1/1
[libx264 @ 0x5625eac12680] using cpu capabilities: MMX2 SSE2Fast SSSE3 SSE4.2 AVX FMA3 BMI2 AVX2
[libx264 @ 0x5625eac12680] profile High, level 3.2
[libx264 @ 0x5625eac12680] 264 - core 155 r2917 0a84d98 - H.264/MPEG-4 AVC codec - Copyleft 2003-2018 - http://www.videolan.org/x264.html - options: cabac=1 ref=1 deblock=1:0:0 analyse=0x3:0x113 me=hex subme=2 psy=1 psy_rd=1.00:0.00 mixed_ref=0 me_range=16 chroma_me=1 trellis=0 8x8dct=1 cqm=0 deadzone=21,11 fast_pskip=1 chroma_qp_offset=0 threads=22 lookahead_threads=5 sliced_threads=0 nr=0 decimate=1 interlaced=0 bluray_compat=0 constrained_intra=0 bframes=3 b_pyramid=2 b_adapt=1 b_bias=0 direct=1 weightb=1 open_gop=0 weightp=1 keyint=250 keyint_min=25 scenecut=40 intra_refresh=0 rc_lookahead=10 rc=crf mbtree=1 crf=18.0 qcomp=0.60 qpmin=0 qpmax=69 qpstep=4 ip_ratio=1.40 aq=1:1.00
Output #0, mp4, to '/var/www/html/project/media/video/watermarks/WhatsApp_Video_2022-03-31_at_20.31.47.mp4':
  Metadata:
    major_brand     : mp42
    minor_version   : 0
    compatible_brands: mp42mp41
    encoder         : Lavf58.29.100
    Stream #0:0: Video: h264 (libx264), 1 reference frame (avc1 / 0x31637661), yuv420p, 1280x720 [SAR 1:1 DAR 16:9], q=-1--1, 60 fps, 15360 tbn, 60 tbc (default)
    Metadata:
      encoder         : Lavc58.54.100 libx264
    Side data:
      cpb: bitrate max/min/avg: 0/0/0 buffer size: 0 vbv_delay: -1
    Stream #0:1(eng): Audio: aac (LC) (mp4a / 0x6134706D), 48000 Hz, stereo, fltp, delay 1024, 128 kb/s (default)
    Metadata:
      creation_time   : 2022-03-31T18:41:04.000000Z
      handler_name    : #Mainconcept MP4 Sound Media Handler
      encoder         : Lavc58.54.100 aac
[Parsed_overlay_4 @ 0x5625eb09a3c0] [framesync @ 0x5625eb09a4e8] Sync level 0
No more output streams to write to, finishing.
frame= 1386 fps=280 q=-1.0 Lsize=   10065kB time=00:00:23.10 bitrate=3568.7kbits/s speed=4.66x    
[AVIOContext @ 0x5625eaac80c0] Statistics: 0 seeks, 10 writeouts
video:9668kB audio:365kB subtitle:0kB other streams:0kB global headers:0kB muxing overhead: 0.322550%
Input file #0 (/var/www/html/project/media/video/original/WhatsApp_Video_2022-03-31_at_20.31.47.mp4):
  Input stream #0:0 (video): 1386 packets read (13692413 bytes); 1386 frames decoded; 
  Input stream #0:1 (audio): 1083 packets read (916510 bytes); 1083 frames decoded (1108992 samples); 
  Total: 2469 packets (14608923 bytes) demuxed
Input file #1 (/var/www/html/project/static/images/templates/logo.png):
  Input stream #1:0 (video): 1 packets read (111578 bytes); 1 frames decoded; 
  Total: 1 packets (111578 bytes) demuxed
Output file #0 (/var/www/html/project/media/video/watermarks/WhatsApp_Video_2022-03-31_at_20.31.47.mp4):
  Output stream #0:0 (video): 1386 frames encoded; 1386 packets muxed (9899636 bytes); 
  Output stream #0:1 (audio): 1083 frames encoded (1108992 samples); 1084 packets muxed (373501 bytes); 
  Total: 2470 packets (10273137 bytes) muxed
[AVIOContext @ 0x5625eab5d480] Statistics: 2 seeks, 43 writeouts
[libx264 @ 0x5625eac12680] frame I:8     Avg QP:16.92  size: 51026
[libx264 @ 0x5625eac12680] frame P:893   Avg QP:20.92  size:  9645
[libx264 @ 0x5625eac12680] frame B:485   Avg QP:22.73  size:  1810
[libx264 @ 0x5625eac12680] consecutive B-frames: 50.0%  8.7%  4.1% 37.2%
[libx264 @ 0x5625eac12680] mb I  I16..4: 21.3% 42.1% 36.5%
[libx264 @ 0x5625eac12680] mb P  I16..4:  4.5%  8.2%  1.2%  P16..4: 22.6%  9.2%  4.1%  0.0%  0.0%    skip:50.1%
[libx264 @ 0x5625eac12680] mb B  I16..4:  0.8%  1.0%  0.0%  B16..8: 16.3%  3.2%  0.2%  direct: 2.1%  skip:76.5%  L0:50.5% L1:45.2% BI: 4.4%
[libx264 @ 0x5625eac12680] 8x8 transform intra:57.8% inter:37.7%
[libx264 @ 0x5625eac12680] coded y,uvDC,uvAC intra: 45.0% 34.2% 12.9% inter: 6.0% 7.7% 0.6%
[libx264 @ 0x5625eac12680] i16 v,h,dc,p: 46% 40%  6%  7%
[libx264 @ 0x5625eac12680] i8 v,h,dc,ddl,ddr,vr,hd,vl,hu: 28% 42% 11%  2%  3%  3%  5%  3%  3%
[libx264 @ 0x5625eac12680] i4 v,h,dc,ddl,ddr,vr,hd,vl,hu: 24% 40% 10%  3%  5%  4%  6%  3%  5%
[libx264 @ 0x5625eac12680] i8c dc,h,v,p: 55% 25% 16%  5%
[libx264 @ 0x5625eac12680] Weighted P-Frames: Y:0.2% UV:0.1%
[libx264 @ 0x5625eac12680] kb/s:3428.21
[aac @ 0x5625eab10480] Qavg: 236.321
[AVIOContext @ 0x5625eaad1040] Statistics: 14636392 bytes read, 0 seeks
[AVIOContext @ 0x5625eac133c0] Statistics: 111578 bytes read, 0 seeks
